<svg width="30" height="30" viewBox="0 0 30 30" fill="none" xmlns="http://www.w3.org/2000/svg">
<path d="M19.375 6.25C21.1306 6.25 22.0084 6.25 22.6389 6.67133C22.9119 6.85372 23.1463 7.0881 23.3287 7.36107C23.75 7.99163 23.75 8.86942 23.75 10.625V22.5C23.75 24.857 23.75 26.0355 23.0178 26.7678C22.2855 27.5 21.107 27.5 18.75 27.5H11.25C8.89298 27.5 7.71447 27.5 6.98223 26.7678C6.25 26.0355 6.25 24.857 6.25 22.5V10.625C6.25 8.86942 6.25 7.99163 6.67133 7.36107C6.85372 7.0881 7.0881 6.85372 7.36107 6.67133C7.99163 6.25 8.86942 6.25 10.625 6.25" stroke="url(#paint0_radial_375_6155)" stroke-width="2"/>
<path d="M11.25 6.25C11.25 4.86929 12.3693 3.75 13.75 3.75H16.25C17.6307 3.75 18.75 4.86929 18.75 6.25C18.75 7.63071 17.6307 8.75 16.25 8.75H13.75C12.3693 8.75 11.25 7.63071 11.25 6.25Z" stroke="url(#paint1_radial_375_6155)" stroke-width="2"/>
<path d="M11.25 15L18.75 15" stroke="url(#paint2_radial_375_6155)" stroke-width="2" stroke-linecap="round"/>
<path d="M11.25 20L16.25 20" stroke="url(#paint3_radial_375_6155)" stroke-width="2" stroke-linecap="round"/>
<defs>
<radialGradient id="paint0_radial_375_6155" cx="0" cy="0" r="1" gradientUnits="userSpaceOnUse" gradientTransform="translate(0.955413 16.875) scale(27.9777 212.919)">
<stop offset="0.208333" stop-color="#FF006E"/>
<stop offset="0.536458" stop-color="#3A86FF"/>
<stop offset="0.869792" stop-color="#8338EC"/>
</radialGradient>
<radialGradient id="paint1_radial_375_6155" cx="0" cy="0" r="1" gradientUnits="userSpaceOnUse" gradientTransform="translate(8.98089 6.25) scale(11.9904 50.0985)">
<stop offset="0.208333" stop-color="#FF006E"/>
<stop offset="0.536458" stop-color="#3A86FF"/>
<stop offset="0.869792" stop-color="#8338EC"/>
</radialGradient>
<radialGradient id="paint2_radial_375_6155" cx="0" cy="0" r="1" gradientUnits="userSpaceOnUse" gradientTransform="translate(8.98089 15.5) scale(11.9904 10.0197)">
<stop offset="0.208333" stop-color="#FF006E"/>
<stop offset="0.536458" stop-color="#3A86FF"/>
<stop offset="0.869792" stop-color="#8338EC"/>
</radialGradient>
<radialGradient id="paint3_radial_375_6155" cx="0" cy="0" r="1" gradientUnits="userSpaceOnUse" gradientTransform="translate(9.73726 20.5) scale(7.99363 10.0197)">
<stop offset="0.208333" stop-color="#FF006E"/>
<stop offset="0.536458" stop-color="#3A86FF"/>
<stop offset="0.869792" stop-color="#8338EC"/>
</radialGradient>
</defs>
</svg>
