<svg width="25" height="25" viewBox="0 0 25 25" fill="none" xmlns="http://www.w3.org/2000/svg">
<path d="M3.125 10.2648C3.125 9.19811 3.9897 8.33341 5.05636 8.33341V8.33341C5.7879 8.33341 6.45666 7.9201 6.78381 7.26579L7.63889 5.55564C7.77569 5.28203 7.8441 5.14522 7.92497 5.02839C8.24192 4.57055 8.73538 4.26557 9.28663 4.18684C9.4273 4.16675 9.58025 4.16675 9.88616 4.16675H15.1138C15.4197 4.16675 15.5727 4.16675 15.7134 4.18684C16.2646 4.26557 16.7581 4.57055 17.075 5.02839C17.1559 5.14522 17.2243 5.28203 17.3611 5.55564L18.2162 7.26579C18.5433 7.9201 19.2121 8.33341 19.9436 8.33341V8.33341C21.0103 8.33341 21.875 9.19811 21.875 10.2648V15.4763C21.875 17.6852 21.875 18.7896 21.3217 19.5694C21.1264 19.8446 20.8862 20.0849 20.611 20.2801C19.8312 20.8334 18.7267 20.8334 16.5179 20.8334H8.48214C6.27326 20.8334 5.16881 20.8334 4.38899 20.2801C4.11382 20.0849 3.87356 19.8446 3.67832 19.5694C3.125 18.7896 3.125 17.6852 3.125 15.4763V10.2648Z" stroke="#2F2F2F" stroke-width="2"/>
<circle cx="12.5" cy="13.5417" r="3.16667" stroke="#2F2F2F" stroke-width="2"/>
</svg>
