<svg width="30" height="30" viewBox="0 0 30 30" fill="none" xmlns="http://www.w3.org/2000/svg">
<path d="M8.75 8.91492V7.11204C8.75 4.96614 8.75 3.8932 9.4396 3.29511C10.1292 2.69703 11.1914 2.84877 13.3157 3.15224L21.0985 4.26408C23.5547 4.61495 24.7827 4.79039 25.5164 5.63628C26.25 6.48217 26.25 7.72271 26.25 10.2038V19.7962C26.25 22.2773 26.25 23.5178 25.5164 24.3637C24.7827 25.2096 23.5547 25.3851 21.0985 25.7359L13.3157 26.8478C11.1914 27.1512 10.1292 27.303 9.4396 26.7049C8.75 26.1068 8.75 25.0339 8.75 22.888V21.3325" stroke="#F72626" stroke-width="2"/>
<path d="M20 15L20.7809 14.3753L21.2806 15L20.7809 15.6247L20 15ZM5 16C4.44771 16 4 15.5523 4 15C4 14.4477 4.44771 14 5 14V16ZM15.7809 8.1253L20.7809 14.3753L19.2191 15.6247L14.2191 9.3747L15.7809 8.1253ZM20.7809 15.6247L15.7809 21.8747L14.2191 20.6253L19.2191 14.3753L20.7809 15.6247ZM20 16H5V14H20V16Z" fill="#F72626"/>
</svg>
