<svg width="30" height="30" viewBox="0 0 30 30" fill="none" xmlns="http://www.w3.org/2000/svg">
<path d="M5 15C5 14.0714 5 13.6071 5.03425 13.2156C5.41491 8.86458 8.86458 5.41491 13.2156 5.03425C13.6071 5 14.0714 5 15 5V5C15.9286 5 16.3929 5 16.7844 5.03425C21.1354 5.41491 24.5851 8.86458 24.9658 13.2156C25 13.6071 25 14.0714 25 15V21.3636C25 22.8983 25 23.6657 24.6011 24.1986C24.4868 24.3512 24.3512 24.4868 24.1986 24.6011C23.6657 25 22.8983 25 21.3636 25H15C14.0714 25 13.6071 25 13.2156 24.9658C8.86458 24.5851 5.41491 21.1354 5.03425 16.7844C5 16.3929 5 15.9286 5 15V15Z" stroke="url(#paint0_radial_543_6034)" stroke-width="2"/>
<path d="M11.25 13.75L18.75 13.75" stroke="url(#paint1_radial_543_6034)" stroke-width="2" stroke-linecap="round" stroke-linejoin="round"/>
<path d="M15 18.75H18.75" stroke="url(#paint2_radial_543_6034)" stroke-width="2" stroke-linecap="round" stroke-linejoin="round"/>
<defs>
<radialGradient id="paint0_radial_543_6034" cx="0" cy="0" r="1" gradientUnits="userSpaceOnUse" gradientTransform="translate(-1.05096 15) scale(31.9745 200.394)">
<stop offset="0.208333" stop-color="#FF006E"/>
<stop offset="0.536458" stop-color="#3A86FF"/>
<stop offset="0.869792" stop-color="#8338EC"/>
</radialGradient>
<radialGradient id="paint1_radial_543_6034" cx="0" cy="0" r="1" gradientUnits="userSpaceOnUse" gradientTransform="translate(8.98089 14.25) scale(11.9904 10.0197)">
<stop offset="0.208333" stop-color="#FF006E"/>
<stop offset="0.536458" stop-color="#3A86FF"/>
<stop offset="0.869792" stop-color="#8338EC"/>
</radialGradient>
<radialGradient id="paint2_radial_543_6034" cx="0" cy="0" r="1" gradientUnits="userSpaceOnUse" gradientTransform="translate(13.8654 19.25) scale(5.99522 10.0197)">
<stop offset="0.208333" stop-color="#FF006E"/>
<stop offset="0.536458" stop-color="#3A86FF"/>
<stop offset="0.869792" stop-color="#8338EC"/>
</radialGradient>
</defs>
</svg>
